<?xml version="1.0" encoding="UTF-8" standalone="no"?>
<!-- Created with Inkscape (http://www.inkscape.org/) -->

<svg
   width="100"
   height="100"
   viewBox="0 0 26.458333 26.458333"
   version="1.1"
   id="svg1"
   xmlns="http://www.w3.org/2000/svg"
   xmlns:svg="http://www.w3.org/2000/svg">
  <defs
     id="defs1">
    <rect
       x="16.51716"
       y="18.3524"
       width="54.598389"
       height="54.827794"
       id="rect1" />
  </defs>
  <g
     id="layer1">
    <path
       d="m 26.267578,24.726562 h -3.375 v -3.375 c 0,-0.398437 -0.351562,-0.75 -0.75,-0.75 h -0.75 c -0.421875,0 -0.75,0.351563 -0.75,0.75 v 3.375 h -3.375 c -0.421875,0 -0.75,0.351563 -0.75,0.75 v 0.75 c 0,0.421875 0.328125,0.75 0.75,0.75 h 3.375 v 3.375 c 0,0.421875 0.328125,0.75 0.75,0.75 h 0.75 c 0.398438,0 0.75,-0.328125 0.75,-0.75 v -3.375 h 3.375 c 0.398438,0 0.75,-0.328125 0.75,-0.75 v -0.75 c 0,-0.398437 -0.351562,-0.75 -0.75,-0.75 z"
       id="text1"
       style="font-family:'Font Awesome 5 Free';-inkscape-font-specification:'Font Awesome 5 Free';white-space:pre;fill:#f5f5f5;stroke-width:115.25"
       transform="matrix(2.1166666,0,0,2.1166666,-32.845539,-41.489972)"
       aria-label="ï§" />
  </g>
</svg>
