<?xml version="1.0" encoding="UTF-8" standalone="no"?>
<svg
   width="2000"
   zoomAndPan="magnify"
   viewBox="0 0 1500 750"
   height="1000"
   preserveAspectRatio="xMidYMid"
   version="1.0"
   id="svg13"
   xmlns="http://www.w3.org/2000/svg"
   xmlns:svg="http://www.w3.org/2000/svg">
  <defs
     id="defs1">
    <g
       id="g1" />
  </defs>
  <g
     id="g14"
     transform="matrix(4,0,0,4,-6.74574,-373.70932)">
    <g
       fill="#404040"
       fill-opacity="1"
       id="g4"
       transform="matrix(2,0,0,2,-189.18644,-187.17733)">
      <g
         transform="translate(104.26844,208.17733)"
         id="g3">
        <g
           id="g2">
          <path
             d="M 37.59375,-10.125 V -23.46875 L 26.875,-2 c -0.0625,0.210938 -0.21875,0.3125 -0.46875,0.3125 h -6.453125 c -0.28125,0 -0.460937,-0.101562 -0.53125,-0.3125 L 8.03125,-24.046875 V -0.46875 C 8.03125,-0.15625 7.835938,0 7.453125,0 H 0.53125 C 0.175781,0 0,-0.15625 0,-0.46875 v -41.0625 C 0,-41.84375 0.175781,-42 0.53125,-42 H 7.5625 c 0.28125,0 0.453125,0.105469 0.515625,0.3125 L 23.15625,-10.921875 37.484375,-41.6875 C 37.617188,-41.894531 37.8125,-42 38.0625,-42 H 45 c 0.375,0 0.5625,0.15625 0.5625,0.46875 V -10.125 Z m 0,0"
             id="path1" />
        </g>
      </g>
    </g>
    <g
       fill="#404040"
       fill-opacity="1"
       id="g7"
       transform="matrix(2,0,0,2,-189.18644,-187.17733)">
      <g
         transform="translate(157.92439,208.17733)"
         id="g6">
        <g
           id="g5">
          <path
             d="m 32.96875,-0.625 c 0.07031,0.136719 0.05469,0.277344 -0.04687,0.421875 C 32.816406,-0.0664062 32.675781,0 32.5,0 H 25.25 C 25.007812,0 24.851562,-0.101562 24.78125,-0.3125 L 16.484375,-23.734375 8.296875,-0.3125 C 8.265625,-0.101562 8.085938,0 7.765625,0 h -7.1875 c -0.25,0 -0.417969,-0.0664062 -0.5,-0.203125 -0.08203125,-0.144531 -0.09375,-0.285156 -0.03125,-0.421875 l 15.90625,-41.0625 c 0.07031,-0.207031 0.25,-0.3125 0.53125,-0.3125 0.28125,0 0.457031,0.105469 0.53125,0.3125 z m 0,0"
             id="path4" />
        </g>
      </g>
    </g>
    <g
       fill="#404040"
       fill-opacity="1"
       id="g10"
       transform="matrix(2,0,0,2,-189.18644,-187.17733)">
      <g
         transform="translate(198.35035,208.17733)"
         id="g9">
        <g
           id="g8">
          <path
             d="m 32.96875,-0.625 c 0.07031,0.136719 0.05469,0.277344 -0.04687,0.421875 C 32.816406,-0.0664062 32.675781,0 32.5,0 H 25.25 C 25.007812,0 24.851562,-0.101562 24.78125,-0.3125 L 16.484375,-23.734375 8.296875,-0.3125 C 8.265625,-0.101562 8.085938,0 7.765625,0 h -7.1875 c -0.25,0 -0.417969,-0.0664062 -0.5,-0.203125 -0.08203125,-0.144531 -0.09375,-0.285156 -0.03125,-0.421875 l 15.90625,-41.0625 c 0.07031,-0.207031 0.25,-0.3125 0.53125,-0.3125 0.28125,0 0.457031,0.105469 0.53125,0.3125 z m 0,0"
             id="path7" />
        </g>
      </g>
    </g>
    <g
       fill="#404040"
       fill-opacity="1"
       id="g13"
       transform="matrix(2,0,0,2,-189.18644,-187.17733)">
      <g
         transform="translate(238.77631,208.17733)"
         id="g12">
        <g
           id="g11">
          <path
             d="m 34.75,-42 c 0.382812,0 0.578125,0.15625 0.578125,0.46875 v 41.0625 C 35.328125,-0.15625 35.132812,0 34.75,0 h -6.921875 c -0.04297,0 -0.125,-0.015625 -0.25,-0.046875 -0.117187,-0.0390625 -0.1875,-0.078125 -0.21875,-0.109375 L 8.03125,-27.828125 v 17.75 H 0 V -41.53125 C 0,-41.84375 0.175781,-42 0.53125,-42 H 7.5 c 0.070312,0 0.160156,0.01172 0.265625,0.03125 0.101563,0.01172 0.175781,0.05469 0.21875,0.125 l 19.375,27.671875 V -41.53125 c 0,-0.3125 0.207031,-0.46875 0.625,-0.46875 z m 0,0"
             id="path10" />
        </g>
      </g>
    </g>
  </g>
</svg>
