<svg xmlns="http://www.w3.org/2000/svg" version="1.1" xmlns:xlink="http://www.w3.org/1999/xlink" width="1000" height="1000"><g clip-path="url(#SvgjsClipPath3116)"><rect width="1000" height="1000" fill="#5fb4ff"></rect><g transform="matrix(7,0,0,7,150,150)"><svg xmlns="http://www.w3.org/2000/svg" version="1.1" xmlns:xlink="http://www.w3.org/1999/xlink" width="100" height="100"><svg width="100" height="100" viewBox="0 0 26.458333 26.458333" version="1.1" id="svg1" inkscape:version="1.3.2 (091e20e, 2023-11-25, custom)" sodipodi:docname="weather-icon-whitesmoke-2.svg" xmlns:inkscape="http://www.inkscape.org/namespaces/inkscape" xmlns:sodipodi="http://sodipodi.sourceforge.net/DTD/sodipodi-0.dtd" xmlns="http://www.w3.org/2000/svg" xmlns:svg="http://www.w3.org/2000/svg">
  <sodipodi:namedview id="namedview1" pagecolor="#ffffff" bordercolor="#000000" borderopacity="0.25" inkscape:showpageshadow="2" inkscape:pageopacity="0.0" inkscape:pagecheckerboard="0" inkscape:deskcolor="#d1d1d1" inkscape:document-units="mm" inkscape:zoom="4.359103" inkscape:cx="56.777736" inkscape:cy="64.806911" inkscape:window-width="1920" inkscape:window-height="1121" inkscape:window-x="-9" inkscape:window-y="191" inkscape:window-maximized="1" inkscape:current-layer="svg1"></sodipodi:namedview>
  <defs id="defs1">
    <rect x="17.664185" y="20.875855" width="65.609829" height="62.168754" id="rect2"></rect>
    <rect x="15.59954" y="21.793475" width="68.133283" height="59.874704" id="rect1"></rect>
  <clipPath id="SvgjsClipPath3116"><rect width="1000" height="1000" x="0" y="0" rx="350" ry="350"></rect></clipPath></defs>
  <path d="m 22.200196,12.013145 c 0.165365,-0.461248 0.289387,-0.922498 0.289387,-1.467609 0,-2.2223831 -1.777669,-4.0254471 -3.96875,-4.0254471 -0.826822,0 -1.612304,0.251591 -2.232422,0.712839 C 15.1722,5.2202047 13.022462,3.8364585 10.583333,3.8364585 c -3.6793607,0 -6.6145829,3.0190844 -6.6145829,6.7090775 0,0.125794 0,0.25159 0,0.377385 C 1.653646,11.719624 1.6666666e-7,13.983937 1.6666666e-7,16.583706 1.6666666e-7,19.938244 2.6458335,22.621875 5.953125,22.621875 h 15.213541 c 2.89388,0 5.291667,-2.39011 5.291667,-5.367262 0,-2.557836 -1.819011,-4.738286 -4.258137,-5.241468 z" id="text1" style="font-family:'Font Awesome 5 Free';-inkscape-font-specification:'Font Awesome 5 Free';white-space:pre;fill:#f5f5f5;fill-opacity:1;stroke-width:204.735" aria-label=""></path>
</svg></svg></g></g></svg>