<?xml version="1.0" encoding="UTF-8" standalone="no"?>
<!-- Created with Inkscape (http://www.inkscape.org/) -->

<svg
   width="100"
   height="100"
   viewBox="0 0 26.458333 26.458333"
   version="1.1"
   id="svg1"
   xmlns="http://www.w3.org/2000/svg"
   xmlns:svg="http://www.w3.org/2000/svg">
  <defs
     id="defs1">
    <rect
       x="19.499425"
       y="20.417045"
       width="66.986259"
       height="59.874704"
       id="rect1" />
  </defs>
  <g
     id="layer1">
    <path
       d="m 31.335937,32.300781 -2.34375,-2.34375 C 28.875,29.863281 28.734375,29.792969 28.59375,29.792969 h -0.375 c 0.632812,-0.820313 1.03125,-1.851563 1.03125,-3 0,-2.671875 -2.203125,-4.875 -4.875,-4.875 -2.695313,0 -4.875,2.203125 -4.875,4.875 0,2.695312 2.179687,4.875 4.875,4.875 1.125,0 2.15625,-0.375 3,-1.03125 v 0.398437 c 0,0.140625 0.04687,0.28125 0.164062,0.398438 l 2.320313,2.320312 c 0.234375,0.234375 0.585937,0.234375 0.796875,0 l 0.65625,-0.65625 c 0.234375,-0.210937 0.234375,-0.5625 0.02344,-0.796875 z M 24.375,29.792969 c -1.664063,0 -3,-1.335938 -3,-3 0,-1.640625 1.335937,-3 3,-3 1.640625,0 3,1.359375 3,3 0,1.664062 -1.359375,3 -3,3 z"
       id="text1"
       style="font-family:'Font Awesome 5 Free';-inkscape-font-specification:'Font Awesome 5 Free';white-space:pre;fill:#f5f5f5;stroke-width:115.25"
       transform="matrix(1.0583333,0,0,1.0583333,-13.753743,-16.323551)"
       aria-label="" />
  </g>
</svg>
