<svg xmlns="http://www.w3.org/2000/svg" version="1.1" xmlns:xlink="http://www.w3.org/1999/xlink" width="1000" height="1000"><g clip-path="url(#SvgjsClipPath2388)"><rect width="1000" height="1000" fill="#e3ecff"></rect><g transform="matrix(7,0,0,7,150,150)"><svg xmlns="http://www.w3.org/2000/svg" version="1.1" xmlns:xlink="http://www.w3.org/1999/xlink" width="100" height="100"><svg width="100" height="100" viewBox="0 0 26.458333 26.458333" version="1.1" id="svg1" inkscape:version="1.3.2 (091e20e, 2023-11-25, custom)" sodipodi:docname="todo-list-app-2.svg" xmlns:inkscape="http://www.inkscape.org/namespaces/inkscape" xmlns:sodipodi="http://sodipodi.sourceforge.net/DTD/sodipodi-0.dtd" xmlns="http://www.w3.org/2000/svg" xmlns:svg="http://www.w3.org/2000/svg">
  <sodipodi:namedview id="namedview1" pagecolor="#ffffff" bordercolor="#000000" borderopacity="0.25" inkscape:showpageshadow="2" inkscape:pageopacity="0.0" inkscape:pagecheckerboard="0" inkscape:deskcolor="#d1d1d1" inkscape:document-units="px" inkscape:zoom="4.359103" inkscape:cx="48.977966" inkscape:cy="55.401306" inkscape:window-width="1920" inkscape:window-height="1121" inkscape:window-x="-9" inkscape:window-y="191" inkscape:window-maximized="1" inkscape:current-layer="svg1"></sodipodi:namedview>
  <defs id="defs1">
    <rect x="20.64645" y="24.775739" width="64.692209" height="53.910174" id="rect2"></rect>
    <rect x="111.60311" y="243.9696" width="537.2522" height="502.21402" id="rect1"></rect>
  <clipPath id="SvgjsClipPath2388"><rect width="1000" height="1000" x="0" y="0" rx="150" ry="150"></rect></clipPath></defs>
  <path d="m 18.903235,17.625793 c -0.09921,0.09921 -0.09921,0.198438 -0.09921,0.297656 V 23.52931 H 1.3415272 V 6.0668101 H 13.297387 c 0.09921,0 0.198438,0 0.297656,-0.099208 l 1.5875,-1.5874999 C 15.430589,4.132054 15.232158,3.6855707 14.884887,3.6855707 H 1.3415272 c -1.33945203,0 -2.3812499,1.0914063 -2.3812499,2.38125 V 23.52932 c 0,1.339452 1.04179787,2.38125 2.3812499,2.38125 H 18.804027 c 1.289843,0 2.38125,-1.041798 2.38125,-2.38125 v -7.19336 c 0,-0.347265 -0.446484,-0.545702 -0.694532,-0.297656 z M 26.642297,7.65431 c 1.141017,-1.1410166 1.141017,-2.9765624 0,-4.117579 L 24.509095,1.403529 c -1.141017,-1.14101666 -2.976562,-1.14101666 -4.117579,0 L 7.3938602,14.401185 6.8977664,18.915637 c -0.1488228,1.289843 0.9425792,2.38125 2.2324229,2.232423 L 13.644641,20.651966 Z M 21.780578,9.1425912 12.553235,18.369935 9.2790164,18.76681 9.6758913,15.492591 18.903235,6.2652476 Z m 3.175,-3.9191415 c 0.248048,0.1984375 0.248048,0.4960937 0.04961,0.7441416 l -1.537892,1.5378896 -2.877343,-2.926952 1.488281,-1.4882812 c 0.198437,-0.2480479 0.545704,-0.2480479 0.744142,0 z" id="text1" style="font-family:'Font Awesome 5 Free';-inkscape-font-specification:'Font Awesome 5 Free';white-space:pre;opacity:0.98;fill:#333333;stroke-width:243.946" aria-label="ï„"></path>
</svg></svg></g></g></svg>