<svg xmlns="http://www.w3.org/2000/svg" version="1.1" xmlns:xlink="http://www.w3.org/1999/xlink" width="1000" height="1000"><g clip-path="url(#SvgjsClipPath1557)"><rect width="1000" height="1000" fill="#f4f4f4"></rect><g transform="matrix(7,0,0,7,150,150)"><svg xmlns="http://www.w3.org/2000/svg" version="1.1" xmlns:xlink="http://www.w3.org/1999/xlink" width="100" height="100"><svg width="100" height="100" viewBox="0 0 26.458331 26.458333" version="1.1" id="svg1" xmlns="http://www.w3.org/2000/svg" xmlns:svg="http://www.w3.org/2000/svg">
  <defs id="defs1">
    <rect x="15.896955" y="14.599244" width="72.347367" height="50.124073" id="rect34"></rect>
    <rect x="21.250011" y="20.76337" width="54.503846" height="53.854991" id="rect33"></rect>
    <rect x="17.032452" y="20.601156" width="58.883619" height="45.906513" id="rect32"></rect>
    <rect x="16.383596" y="159.61841" width="23.68322" height="19.303446" id="rect31"></rect>
    <rect x="185.57262" y="181.35506" width="77.213783" height="15.410314" id="rect30"></rect>
    <rect x="-5.0286288" y="477.39529" width="68.94088" height="61.479042" id="rect29"></rect>
    <rect x="352.73398" y="510.32471" width="37.309181" height="35.443722" id="rect28"></rect>
    <rect x="65.291069" y="164.07928" width="37.958035" height="34.71376" id="rect27"></rect>
    <linearGradient id="swatch26">
      <stop style="stop-color:#000000;stop-opacity:1;" offset="0" id="stop27"></stop>
    </linearGradient>
    <rect x="62.452324" y="157.67184" width="47.609756" height="57.585911" id="rect7"></rect>
    <rect x="75.26722" y="177.78635" width="595.64917" height="476.2598" id="rect1"></rect>
  <clipPath id="SvgjsClipPath1557"><rect width="1000" height="1000" x="0" y="0" rx="150" ry="150"></rect></clipPath></defs>
  <path d="m 26.396484,24.537109 v -7.875 c 0,-0.304687 -0.257812,-0.5625 -0.5625,-0.5625 h -7.6875 c -1.242187,0 -2.25,1.007813 -2.25,2.25 v 7.5 c 0,1.242188 1.007813,2.25 2.25,2.25 h 7.6875 c 0.304688,0 0.5625,-0.234375 0.5625,-0.5625 v -0.375 c 0,-0.164062 -0.09375,-0.328125 -0.210937,-0.421875 -0.117188,-0.375 -0.117188,-1.40625 0,-1.757812 0.117187,-0.09375 0.210937,-0.257813 0.210937,-0.445313 z m -7.5,-5.296875 c 0,-0.07031 0.04687,-0.140625 0.140625,-0.140625 h 4.96875 c 0.07031,0 0.140625,0.07031 0.140625,0.140625 v 0.46875 c 0,0.09375 -0.07031,0.140625 -0.140625,0.140625 h -4.96875 c -0.09375,0 -0.140625,-0.04687 -0.140625,-0.140625 z m 0,1.5 c 0,-0.07031 0.04687,-0.140625 0.140625,-0.140625 h 4.96875 c 0.07031,0 0.140625,0.07031 0.140625,0.140625 v 0.46875 c 0,0.09375 -0.07031,0.140625 -0.140625,0.140625 h -4.96875 c -0.09375,0 -0.140625,-0.04687 -0.140625,-0.140625 z m 5.929688,5.859375 h -6.679688 c -0.421875,0 -0.75,-0.328125 -0.75,-0.75 0,-0.398437 0.328125,-0.75 0.75,-0.75 h 6.679688 c -0.04687,0.421875 -0.04687,1.101563 0,1.5 z" id="text33" style="font-family:'Font Awesome 5 Free';-inkscape-font-specification:'Font Awesome 5 Free';white-space:pre;opacity:0.98;fill:#030303;stroke-width:115.25" transform="matrix(2.1166666,0,0,2.1166666,-31.530891,-33.548339)" aria-label=""></path>
</svg></svg></g></g></svg>